<svg id="Layer_1" data-name="Layer 1" xmlns="http://www.w3.org/2000/svg" viewBox="0 0 39 67.3"><defs><style>.cls-1{fill:#fff;}</style></defs><title>colorwhitenoun_Baby_859032</title><path class="cls-1" d="M50,16.4A19.46,19.46,0,0,0,30.5,35.9V64.2a19.5,19.5,0,0,0,39,0V35.9A19.46,19.46,0,0,0,50,16.4ZM66.2,67.2a35.74,35.74,0,0,1-11.5-2.5c5.4-2,9.4-6.4,11.8-9.9v9.3A15.53,15.53,0,0,1,66.2,67.2ZM50,19.4A16.52,16.52,0,0,1,66.5,35.9V49c-.9,1.8-6.6,12.5-16.2,13.8A63.75,63.75,0,0,1,33.5,49.4V35.9A16.52,16.52,0,0,1,50,19.4Zm0,61.2A16.52,16.52,0,0,1,33.5,64.1V53.9c5,5.2,16.8,15.3,31.9,16.3A16.62,16.62,0,0,1,50,80.6Z" transform="translate(-30.5 -16.4)"/><path class="cls-1" d="M49.9,49.3A12.7,12.7,0,1,0,37.2,36.6,12.59,12.59,0,0,0,49.9,49.3Zm0-22.4a9.7,9.7,0,1,1-9.7,9.7A9.58,9.58,0,0,1,49.9,26.9Z" transform="translate(-30.5 -16.4)"/><path class="cls-1" d="M46.3,41.6a5.9,5.9,0,0,0,3.9,1.3,6.55,6.55,0,0,0,3.5-1l-.6-.8a5.22,5.22,0,0,1-2.9.8,5.09,5.09,0,0,1-3.2-1Z" transform="translate(-30.5 -16.4)"/><path class="cls-1" d="M46.2,32.8A1.79,1.79,0,0,1,48,34.6h1a2.8,2.8,0,1,0-5.6,0h1A1.93,1.93,0,0,1,46.2,32.8Z" transform="translate(-30.5 -16.4)"/><path class="cls-1" d="M53.8,32.8a1.79,1.79,0,0,1,1.8,1.8h1a2.8,2.8,0,0,0-5.6,0h1A1.79,1.79,0,0,1,53.8,32.8Z" transform="translate(-30.5 -16.4)"/></svg>