<svg xmlns="http://www.w3.org/2000/svg" xmlns:xlink="http://www.w3.org/1999/xlink" version="1.1" x="0px" y="0px" viewBox="-255 347 100 125" style="enable-background:new -255 347 100 100;" xml:space="preserve"><path d="M-205,363.4c-10.8,0-19.5,8.7-19.5,19.5v28.3c0,10.8,8.7,19.5,19.5,19.5s19.5-8.7,19.5-19.5v-28.3  C-185.5,372.1-194.2,363.4-205,363.4z M-188.8,414.2c-4.1-0.2-8-1.1-11.5-2.5c5.4-2,9.4-6.4,11.8-9.9v9.3  C-188.5,412.2-188.6,413.2-188.8,414.2z M-205,366.4c9.1,0,16.5,7.4,16.5,16.5V396c-0.9,1.8-6.6,12.5-16.2,13.8  c-9-4.8-15.3-11.7-16.8-13.4v-13.5C-221.5,373.8-214.1,366.4-205,366.4z M-205,427.6c-9.1,0-16.5-7.4-16.5-16.5v-10.2  c5,5.2,16.8,15.3,31.9,16.3C-192.1,423.3-198,427.6-205,427.6z"/><path d="M-205.1,396.3c7,0,12.7-5.7,12.7-12.7s-5.7-12.7-12.7-12.7s-12.7,5.7-12.7,12.7C-217.9,390.6-212.2,396.3-205.1,396.3z   M-205.1,373.9c5.4,0,9.7,4.4,9.7,9.7c0,5.4-4.4,9.7-9.7,9.7c-5.4,0-9.7-4.4-9.7-9.7C-214.9,378.2-210.5,373.9-205.1,373.9z"/><path d="M-208.7,388.6c0.9,0.8,2.3,1.3,3.9,1.3c1.3,0,2.6-0.4,3.5-1l-0.6-0.8c-0.7,0.5-1.8,0.8-2.9,0.8c-1.3,0-2.5-0.4-3.2-1  L-208.7,388.6z"/><path d="M-208.8,379.8c1,0,1.8,0.8,1.8,1.8h1c0-1.5-1.3-2.8-2.8-2.8s-2.8,1.3-2.8,2.8h1C-210.5,380.6-209.7,379.8-208.8,379.8z"/><path d="M-201.2,379.8c1,0,1.8,0.8,1.8,1.8h1c0-1.5-1.3-2.8-2.8-2.8s-2.8,1.3-2.8,2.8h1C-203,380.6-202.2,379.8-201.2,379.8z"/><text x="-255" y="462" fill="#000000" font-size="5px" font-weight="bold" font-family="'Helvetica Neue', Helvetica, Arial-Unicode, Arial, Sans-serif"></text><text x="-255" y="467" fill="#000000" font-size="5px" font-weight="bold" font-family="'Helvetica Neue', Helvetica, Arial-Unicode, Arial, Sans-serif"></text></svg>