<?xml version="1.0" encoding="utf-8"?>
<!-- Generator: Adobe Illustrator 22.1.0, SVG Export Plug-In . SVG Version: 6.00 Build 0)  -->
<svg version="1.1" id="Layer_1" xmlns="http://www.w3.org/2000/svg" xmlns:xlink="http://www.w3.org/1999/xlink" x="0px" y="0px"
	 viewBox="0 0 100 125" style="enable-background:new 0 0 100 125;" xml:space="preserve">
<style type="text/css">
	.st0{fill:#FFFFFF;}
</style>
<path class="st0" d="M50,16.4c-10.8,0-19.5,8.7-19.5,19.5v28.3c0,10.8,8.7,19.5,19.5,19.5S69.5,75,69.5,64.2V35.9
	C69.5,25.1,60.8,16.4,50,16.4z M66.2,67.2c-4.1-0.2-8-1.1-11.5-2.5c5.4-2,9.4-6.4,11.8-9.9v9.3C66.5,65.2,66.4,66.2,66.2,67.2z
	 M50,19.4c9.1,0,16.5,7.4,16.5,16.5V49c-0.9,1.8-6.6,12.5-16.2,13.8C41.3,58,35,51.1,33.5,49.4V35.9C33.5,26.8,40.9,19.4,50,19.4z
	 M50,80.6c-9.1,0-16.5-7.4-16.5-16.5V53.9c5,5.2,16.8,15.3,31.9,16.3C62.9,76.3,57,80.6,50,80.6z"/>
<path class="st0" d="M49.9,49.3c7,0,12.7-5.7,12.7-12.7s-5.7-12.7-12.7-12.7s-12.7,5.7-12.7,12.7C37.1,43.6,42.8,49.3,49.9,49.3z
	 M49.9,26.9c5.4,0,9.7,4.4,9.7,9.7c0,5.4-4.4,9.7-9.7,9.7c-5.4,0-9.7-4.4-9.7-9.7C40.1,31.2,44.5,26.9,49.9,26.9z"/>
<path class="st0" d="M46.3,41.6c0.9,0.8,2.3,1.3,3.9,1.3c1.3,0,2.6-0.4,3.5-1l-0.6-0.8c-0.7,0.5-1.8,0.8-2.9,0.8
	c-1.3,0-2.5-0.4-3.2-1L46.3,41.6z"/>
<path class="st0" d="M46.2,32.8c1,0,1.8,0.8,1.8,1.8h1c0-1.5-1.3-2.8-2.8-2.8s-2.8,1.3-2.8,2.8h1C44.5,33.6,45.3,32.8,46.2,32.8z"/>
<path class="st0" d="M53.8,32.8c1,0,1.8,0.8,1.8,1.8h1c0-1.5-1.3-2.8-2.8-2.8S51,33.1,51,34.6h1C52,33.6,52.8,32.8,53.8,32.8z"/>
</svg>
